<svg width="686" height="580" viewBox="0 0 686 580" fill="none" xmlns="http://www.w3.org/2000/svg">
<path d="M551.873 47.2781C557.884 47.2781 562.757 42.4156 562.757 36.4174C562.757 30.4192 557.884 25.5567 551.873 25.5567C545.861 25.5567 540.988 30.4192 540.988 36.4174C540.988 42.4156 545.861 47.2781 551.873 47.2781Z" fill="#F1F1F1"/>
<path d="M487.698 467.557C493.71 467.557 498.583 462.695 498.583 456.697C498.583 450.698 493.71 445.836 487.698 445.836C481.687 445.836 476.814 450.698 476.814 456.697C476.814 462.695 481.687 467.557 487.698 467.557Z" fill="#F1F1F1"/>
<path d="M216.987 151.796C222.998 151.796 227.871 146.933 227.871 140.935C227.871 134.937 222.998 130.074 216.987 130.074C210.975 130.074 206.102 134.937 206.102 140.935C206.102 146.933 210.975 151.796 216.987 151.796Z" fill="#F1F1F1"/>
<path d="M115.809 580C179.768 580 231.617 572.421 231.617 563.071C231.617 553.721 179.768 546.142 115.809 546.142C51.8493 546.142 0 553.721 0 563.071C0 572.421 51.8493 580 115.809 580Z" fill="#F1F1F1"/>
<path d="M176.985 440.871L206.059 431.782C204.45 419.717 200.777 408.017 195.199 397.192L166.126 406.281C172.948 416.555 176.713 428.548 176.985 440.871Z" fill="#6C63FF"/>
<path d="M107.105 223.133C122.096 223.133 134.249 211.006 134.249 196.046C134.249 181.087 122.096 168.96 107.105 168.96C92.113 168.96 79.9598 181.087 79.9598 196.046C79.9598 211.006 92.113 223.133 107.105 223.133Z" fill="#2F2E41"/>
<path d="M77.8204 535.47L72.657 557.551H85.1968L90.3602 532.525L77.8204 535.47Z" fill="#9F616A"/>
<path d="M138.306 535.47V556.079L150.846 557.551V535.47H138.306Z" fill="#9F616A"/>
<path d="M74.1323 301.409C74.1323 301.409 75.6075 333.058 77.0828 335.266C78.5581 337.475 91.8355 369.124 91.8355 369.124L98.4742 348.515C98.4742 348.515 88.1473 331.586 89.6226 322.018C91.0978 312.449 90.1684 300.675 90.1684 300.675L74.1323 301.409Z" fill="#9F616A"/>
<path d="M116.177 224.86C127.584 224.86 136.831 215.633 136.831 204.251C136.831 192.869 127.584 183.642 116.177 183.642C104.771 183.642 95.5237 192.869 95.5237 204.251C95.5237 215.633 104.771 224.86 116.177 224.86Z" fill="#9F616A"/>
<path d="M99.2118 206.459C99.2118 206.459 99.9495 235.901 94.786 240.317C89.6226 244.734 124.291 241.053 124.291 241.053C124.291 241.053 116.915 220.444 122.816 216.028C128.717 211.612 99.2118 206.459 99.2118 206.459Z" fill="#9F616A"/>
<path d="M126.504 239.581C126.504 239.581 122.078 231.485 116.177 232.221C110.276 232.957 91.0978 234.429 90.3602 235.901C89.6226 237.373 87.4097 242.525 85.9344 243.997C84.4591 245.47 73.3946 247.678 72.657 256.51C71.9193 265.343 99.2118 319.074 99.2118 319.074C99.2118 319.074 95.5236 331.586 96.2613 334.53C96.9989 337.475 92.5731 346.307 93.3107 349.987C94.0484 353.667 82.2462 375.749 88.1473 404.454V450.825C88.1473 450.825 68.2312 531.053 74.1323 536.942C80.0333 542.83 99.9495 539.15 103.638 536.942C107.326 534.733 122.816 423.591 122.816 423.591L130.192 386.053L130.93 468.49C130.93 468.49 129.455 537.678 134.618 539.886C139.782 542.094 159.698 542.83 161.173 538.414C162.324 534.969 167.961 443.326 170.387 403.154C171.227 389.288 170.134 375.373 167.139 361.807C164.069 347.912 159.612 331.587 154.534 324.962C144.945 312.449 139.044 272.703 139.044 272.703L151.584 249.886C151.584 249.886 144.208 242.525 139.782 242.525C135.356 242.525 126.504 239.581 126.504 239.581Z" fill="#2F2E41"/>
<path d="M77.0828 251.358L73.1928 254C73.1928 254 70.4441 301.409 72.657 304.353C74.8699 307.297 90.255 305.86 91.414 303.266C92.5731 300.673 77.0828 251.358 77.0828 251.358Z" fill="#2F2E41"/>
<path d="M137.569 295.52C137.569 295.52 138.306 326.434 142.732 335.267C147.158 344.099 163.386 380.901 163.386 380.901C163.386 380.901 162.444 421.406 170.66 411.458C178.876 401.51 173.713 377.957 173.713 377.957L159.698 323.49C159.698 323.49 152.322 299.201 153.059 291.84C153.797 284.48 137.569 295.52 137.569 295.52Z" fill="#9F616A"/>
<path d="M150.846 544.154C150.846 544.154 151.584 543.566 153.797 545.774C156.01 547.982 161.911 550.926 161.173 559.023C160.435 567.119 156.01 568.591 156.01 568.591V566.383H153.797V570.063C153.797 570.063 150.109 581.84 133.143 574.48C133.143 574.48 132.405 568.591 133.143 564.911C133.881 561.231 133.881 543.566 136.094 544.302C138.306 545.038 144.208 545.774 145.683 548.718C147.158 551.662 151.584 550.631 150.846 544.154Z" fill="#2F2E41"/>
<path d="M74.8699 544.89C74.8699 544.89 74.1323 544.302 71.9194 546.51C69.7065 548.718 63.8054 551.662 64.543 559.759C65.2807 567.855 69.7065 569.327 69.7065 569.327V567.119H71.9194V570.799C71.9194 570.799 75.6075 582.576 92.5731 575.216C92.5731 575.216 93.3108 569.327 92.5731 565.647C91.8355 561.967 91.8355 544.302 89.6226 545.038C87.4097 545.774 81.5086 546.51 80.0333 549.454C78.5581 552.398 74.1323 551.367 74.8699 544.89Z" fill="#2F2E41"/>
<path d="M141.257 247.678L151.584 249.886C151.584 249.886 151.584 266.079 154.534 272.703C157.485 279.327 162.648 294.784 160.435 295.52C158.223 296.256 137.569 306.561 136.094 300.673C134.618 294.784 130.93 247.678 141.257 247.678Z" fill="#2F2E41"/>
<path d="M77.6977 187.469C92.6894 187.469 104.843 175.342 104.843 160.383C104.843 145.424 92.6894 133.297 77.6977 133.297C62.706 133.297 50.5529 145.424 50.5529 160.383C50.5529 175.342 62.706 187.469 77.6977 187.469Z" fill="#2F2E41"/>
<path d="M54.2839 182.812C57.7973 185.346 61.8677 187.003 66.1546 187.646C70.4416 188.288 74.8203 187.897 78.9245 186.504C83.0288 185.112 86.7391 182.758 89.7451 179.642C92.7511 176.525 94.9654 172.735 96.2027 168.59C95.7345 172.305 94.4995 175.883 92.5756 179.098C90.6517 182.313 88.0807 185.095 85.0249 187.268C81.9691 189.442 78.495 190.959 74.8217 191.725C71.1485 192.491 67.356 192.489 63.6837 191.719C60.0113 190.948 56.539 189.427 53.4858 187.25C50.4326 185.072 47.8649 182.287 45.9448 179.07C44.0247 175.853 42.7939 172.274 42.3302 168.558C41.8664 164.842 42.1798 161.071 43.2505 157.482C42.6424 162.303 43.3459 167.199 45.2872 171.656C47.2285 176.113 50.3361 179.966 54.2839 182.812Z" fill="#2F2E41"/>
<path d="M99.866 220.424C110.86 220.424 119.772 211.531 119.772 200.561C119.772 189.591 110.86 180.698 99.866 180.698C88.8721 180.698 79.9598 189.591 79.9598 200.561C79.9598 211.531 88.8721 220.424 99.866 220.424Z" fill="#2F2E41"/>
<path d="M116.605 206.881C126.35 206.881 134.249 200.716 134.249 193.112C134.249 185.508 126.35 179.343 116.605 179.343C106.861 179.343 98.9612 185.508 98.9612 193.112C98.9612 200.716 106.861 206.881 116.605 206.881Z" fill="#2F2E41"/>
<path d="M121.312 213.133C123.161 213.133 124.66 210.486 124.66 207.221C124.66 203.956 123.161 201.309 121.312 201.309C119.462 201.309 117.963 203.956 117.963 207.221C117.963 210.486 119.462 213.133 121.312 213.133Z" fill="#A0616A"/>
<path d="M676.884 128.985L299.63 15.9455L208.62 318.366L585.875 431.406L676.884 128.985Z" fill="#F1F1F1"/>
<path d="M450.816 104.439L540.174 140.479" stroke="#3F3D56" stroke-width="2" stroke-miterlimit="10"/>
<path d="M453.088 111.849L454.426 111.225L451.341 104.652L458.137 102.062L457.609 100.687L449.332 103.842L453.088 111.849Z" fill="#3F3D56"/>
<path d="M533.381 144.233L532.852 142.857L539.648 140.269L536.564 133.694L537.902 133.071L541.657 141.079L533.381 144.233Z" fill="#3F3D56"/>
<path d="M495.495 130.556C499.976 130.556 503.609 126.931 503.609 122.459C503.609 117.988 499.976 114.363 495.495 114.363C491.014 114.363 487.381 117.988 487.381 122.459C487.381 126.931 491.014 130.556 495.495 130.556Z" fill="#3F3D56"/>
<path d="M444.007 354.294L526.329 304.279" stroke="#3F3D56" stroke-width="2" stroke-miterlimit="10"/>
<path d="M451.32 356.899L451.617 355.456L444.491 354.001L446.466 347.014L445.045 346.615L442.641 355.125L451.32 356.899Z" fill="#3F3D56"/>
<path d="M525.292 311.958L523.87 311.559L525.846 304.574L518.719 303.118L519.017 301.675L527.697 303.45L525.292 311.958Z" fill="#3F3D56"/>
<path d="M485.168 337.383C489.649 337.383 493.282 333.758 493.282 329.286C493.282 324.815 489.649 321.19 485.168 321.19C480.687 321.19 477.054 324.815 477.054 329.286C477.054 333.758 480.687 337.383 485.168 337.383Z" fill="#3F3D56"/>
<path d="M340.577 195.82L340.606 291.992" stroke="#3F3D56" stroke-width="2" stroke-miterlimit="10"/>
<path d="M334.545 200.699L335.626 201.703L340.576 196.384L345.531 201.7L346.611 200.695L340.575 194.223L334.545 200.699Z" fill="#3F3D56"/>
<path d="M334.571 287.116L335.652 286.112L340.605 291.427L345.557 286.109L346.637 287.113L340.606 293.588L334.571 287.116Z" fill="#3F3D56"/>
<path d="M340.592 252.002C345.073 252.002 348.706 248.377 348.706 243.906C348.706 239.434 345.073 235.809 340.592 235.809C336.111 235.809 332.478 239.434 332.478 243.906C332.478 248.377 336.111 252.002 340.592 252.002Z" fill="#3F3D56"/>
<path d="M406.437 0H272.187V166.345H406.437V0Z" fill="#3F3D56"/>
<path d="M330.918 61.9264H300.451C298.372 49.9329 298.372 37.6723 300.451 25.6788H330.918C327.486 37.5186 327.486 50.0866 330.918 61.9264Z" fill="#FF6584"/>
<path d="M347.705 80.311H378.172C380.251 68.3176 380.251 56.0569 378.172 44.0635H347.705C351.138 55.9033 351.138 68.4712 347.705 80.311Z" fill="#6C63FF"/>
<path d="M318.938 140.666H349.405C351.484 128.673 351.484 116.412 349.405 104.419H318.938C322.37 116.259 322.37 128.827 318.938 140.666Z" fill="#6C63FF"/>
<path d="M686 158.249H551.751V324.594H686V158.249Z" fill="#3F3D56"/>
<path d="M666.822 193.579H570.929V197.995H666.822V193.579Z" fill="#6C63FF"/>
<path d="M666.822 209.036H570.929V213.452H666.822V209.036Z" fill="#6C63FF"/>
<path d="M666.822 224.492H570.929V228.909H666.822V224.492Z" fill="#6C63FF"/>
<path d="M666.822 239.949H570.929V244.365H666.822V239.949Z" fill="#6C63FF"/>
<path d="M666.822 255.406H570.929V259.822H666.822V255.406Z" fill="#6C63FF"/>
<path d="M643.955 271.599H593.796V289.264H643.955V271.599Z" fill="#6C63FF"/>
<path d="M418.239 329.01H283.989V495.355H418.239V329.01Z" fill="#3F3D56"/>
<path d="M399.279 421.609H303.387V426.025H399.279V421.609Z" fill="#6C63FF"/>
<path d="M399.279 437.065H303.387V441.482H399.279V437.065Z" fill="#6C63FF"/>
<path d="M399.279 452.522H303.387V456.939H399.279V452.522Z" fill="#6C63FF"/>
<path d="M399.279 467.979H303.387V472.395H399.279V467.979Z" fill="#6C63FF"/>
<path opacity="0.3" d="M332.762 388.218H302.295C300.216 376.224 300.216 363.964 302.295 351.97H332.762C329.33 363.81 329.33 376.378 332.762 388.218Z" fill="#6C63FF"/>
<path opacity="0.3" d="M401.492 355.365H345.432V359.045H401.492V355.365Z" fill="#6C63FF"/>
<path opacity="0.3" d="M401.492 368.614H345.432V372.294H401.492V368.614Z" fill="#6C63FF"/>
<path opacity="0.3" d="M401.492 381.862H345.432V385.543H401.492V381.862Z" fill="#6C63FF"/>
<path opacity="0.3" d="M401.492 395.111H345.432V398.791H401.492V395.111Z" fill="#6C63FF"/>
</svg>
